

<svg width="237" height="150" viewBox="0 0 237 150" fill="none" xmlns="http://www.w3.org/2000/svg">

<path class="spin-item" d="M8.17223 141.638L31.5337 115.288L41.0412 94.9148L37.2382 57.6995L62.2295 12.6065L79.0715 12.3349L87.7641 22.929L113.57 16.1379M113.57 16.1379L92.382 62.8608L105.149 100.619M113.57 16.1379L161.108 56.0697L228.204 88.9387" stroke="#C4C4C4"/>
<path d="M61.9247 7.0079C62.2915 6.26466 63.3513 6.26466 63.7181 7.0079L64.9574 9.51885C65.103 9.81399 65.3846 10.0186 65.7103 10.0659L68.4813 10.4685C69.3015 10.5877 69.629 11.5957 69.0355 12.1742L67.0304 14.1287C66.7947 14.3585 66.6872 14.6895 66.7428 15.0139L67.2161 17.7737C67.3563 18.5906 66.4988 19.2135 65.7652 18.8278L63.2867 17.5248C62.9954 17.3717 62.6474 17.3717 62.3561 17.5248L59.8776 18.8278C59.144 19.2135 58.2866 18.5906 58.4267 17.7737L58.9 15.0139C58.9556 14.6895 58.8481 14.3585 58.6124 14.1287L56.6073 12.1742C56.0138 11.5957 56.3413 10.5877 57.1615 10.4685L59.9325 10.0659C60.2582 10.0186 60.5398 9.81399 60.6854 9.51885L61.9247 7.0079Z" fill="#C4C4C4"/>
<path d="M227.148 82.7111C227.515 81.9678 228.575 81.9678 228.942 82.7111L230.23 85.3223C230.376 85.6174 230.657 85.822 230.983 85.8693L233.865 86.288C234.685 86.4072 235.012 87.4152 234.419 87.9937L232.334 90.0262C232.098 90.256 231.991 90.587 232.046 90.9114L232.538 93.7813C232.679 94.5982 231.821 95.2212 231.088 94.8355L228.51 93.4805C228.219 93.3273 227.871 93.3273 227.579 93.4805L225.002 94.8355C224.268 95.2212 223.411 94.5982 223.551 93.7813L224.043 90.9114C224.099 90.587 223.991 90.256 223.756 90.0262L221.671 87.9937C221.077 87.4152 221.405 86.4072 222.225 86.288L225.106 85.8693C225.432 85.822 225.714 85.6174 225.859 85.3223L227.148 82.7111Z" fill="#C4C4C4"/>
<path d="M104.129 95.5587C104.496 94.8155 105.556 94.8155 105.923 95.5587L106.945 97.6301C107.091 97.9252 107.372 98.1298 107.698 98.1771L109.984 98.5093C110.804 98.6284 111.132 99.6364 110.538 100.215L108.884 101.827C108.648 102.057 108.541 102.388 108.596 102.712L108.987 104.989C109.127 105.806 108.27 106.429 107.536 106.043L105.491 104.968C105.2 104.815 104.852 104.815 104.561 104.968L102.516 106.043C101.783 106.429 100.925 105.806 101.065 104.989L101.456 102.712C101.511 102.388 101.404 102.057 101.168 101.827L99.514 100.215C98.9205 99.6364 99.248 98.6284 100.068 98.5093L102.354 98.1771C102.68 98.1298 102.961 97.9252 103.107 97.6301L104.129 95.5587Z" fill="#C4C4C4"/>
<path d="M160.503 48.3173C160.87 47.5741 161.93 47.5741 162.297 48.3173L164.075 51.9208C164.221 52.216 164.502 52.4206 164.828 52.4679L168.805 53.0457C169.625 53.1649 169.952 54.1729 169.359 54.7514L166.481 57.5564C166.246 57.7861 166.138 58.1171 166.194 58.4415L166.873 62.4022C167.013 63.2191 166.156 63.842 165.422 63.4563L161.865 61.5864C161.574 61.4332 161.226 61.4332 160.935 61.5864L157.378 63.4563C156.644 63.842 155.787 63.2191 155.927 62.4022L156.606 58.4415C156.662 58.1171 156.554 57.7861 156.318 57.5564L153.441 54.7514C152.847 54.1729 153.175 53.1649 153.995 53.0457L157.972 52.4679C158.297 52.4206 158.579 52.216 158.725 51.9208L160.503 48.3173Z" fill="#C4C4C4"/>
<path d="M7.46156 135.719C7.82838 134.975 8.88822 134.975 9.25504 135.719L10.3642 137.966C10.5099 138.261 10.7914 138.466 11.1171 138.513L13.5973 138.873C14.4175 138.993 14.745 140.001 14.1515 140.579L12.3568 142.328C12.1211 142.558 12.0136 142.889 12.0692 143.214L12.4929 145.684C12.633 146.501 11.7756 147.124 11.0419 146.738L8.82364 145.572C8.53232 145.418 8.18428 145.418 7.89296 145.572L5.67465 146.738C4.94102 147.124 4.08359 146.501 4.2237 145.684L4.64736 143.214C4.703 142.889 4.59545 142.558 4.35976 142.328L2.56511 140.579C1.97159 140.001 2.29911 138.993 3.11933 138.873L5.59947 138.513C5.92518 138.466 6.20675 138.261 6.35241 137.966L7.46156 135.719Z" fill="#C4C4C4"/>
<path d="M31.2225 107.396C31.5893 106.653 32.6491 106.653 33.0159 107.396L34.7944 111C34.94 111.295 35.2216 111.5 35.5473 111.547L39.524 112.125C40.3442 112.244 40.6718 113.252 40.0782 113.83L37.2007 116.635C36.965 116.865 36.8574 117.196 36.9131 117.521L37.5924 121.481C37.7325 122.298 36.875 122.921 36.1414 122.535L32.5845 120.665C32.2932 120.512 31.9452 120.512 31.6538 120.665L28.097 122.535C27.3633 122.921 26.5059 122.298 26.646 121.481L27.3253 117.521C27.381 117.196 27.2734 116.865 27.0377 116.635L24.1601 113.83C23.5666 113.252 23.8941 112.244 24.7144 112.125L28.6911 111.547C29.0168 111.5 29.2983 111.295 29.444 111L31.2225 107.396Z" fill="#C4C4C4"/>
<path d="M40.0236 88.7268C40.3904 87.9835 41.4503 87.9835 41.8171 88.7268L43.0733 91.272C43.2189 91.5671 43.5005 91.7717 43.8262 91.819L46.635 92.2272C47.4552 92.3464 47.7827 93.3543 47.1892 93.9329L45.1567 95.9141C44.9211 96.1438 44.8135 96.4748 44.8691 96.7992L45.349 99.5967C45.4891 100.414 44.6316 101.037 43.898 100.651L41.3857 99.3301C41.0944 99.1769 40.7464 99.1769 40.455 99.3301L37.9427 100.651C37.2091 101.037 36.3517 100.414 36.4918 99.5967L36.9716 96.7992C37.0272 96.4748 36.9197 96.1438 36.684 95.9141L34.6515 93.9329C34.058 93.3543 34.3855 92.3464 35.2057 92.2272L38.0146 91.819C38.3403 91.7717 38.6218 91.5671 38.7675 91.272L40.0236 88.7268Z" fill="#C4C4C4"/>
<path d="M91.5122 56.8603C91.879 56.117 92.9388 56.117 93.3057 56.8603L94.4487 59.1764C94.5944 59.4715 94.8759 59.6761 95.2017 59.7234L97.7576 60.0948C98.5778 60.214 98.9054 61.222 98.3118 61.8005L96.4623 63.6033C96.2266 63.8331 96.1191 64.1641 96.1747 64.4885L96.6113 67.0341C96.7514 67.851 95.894 68.474 95.1604 68.0883L92.8743 66.8864C92.5829 66.7332 92.2349 66.7332 91.9436 66.8864L89.6575 68.0883C88.9238 68.474 88.0664 67.851 88.2065 67.0341L88.6431 64.4885C88.6988 64.1641 88.5912 63.8331 88.3555 63.6033L86.506 61.8005C85.9125 61.222 86.24 60.214 87.0602 60.0948L89.6162 59.7234C89.9419 59.6761 90.2235 59.4715 90.3691 59.1764L91.5122 56.8603Z" fill="#C4C4C4"/>
<path d="M113.641 2.04288C114.008 1.29963 115.068 1.29963 115.435 2.04288L119.339 9.95471C119.485 10.2499 119.767 10.4544 120.092 10.5017L128.824 11.7705C129.644 11.8897 129.971 12.8976 129.378 13.4762L123.06 19.6347C122.824 19.8644 122.717 20.1954 122.772 20.5198L124.264 29.2157C124.404 30.0326 123.546 30.6556 122.813 30.2699L115.003 26.1642C114.712 26.0111 114.364 26.0111 114.073 26.1642L106.263 30.2699C105.53 30.6556 104.672 30.0326 104.812 29.2157L106.304 20.5198C106.359 20.1954 106.252 19.8644 106.016 19.6347L99.6982 13.4762C99.1046 12.8976 99.4322 11.8897 100.252 11.7705L108.984 10.5017C109.309 10.4544 109.591 10.2499 109.737 9.95471L113.641 2.04288Z" fill="#C4C4C4"/>
<path d="M86.9106 16.662C87.2775 15.9187 88.3373 15.9187 88.7041 16.662L89.9307 19.1473C90.0764 19.4425 90.3579 19.6471 90.6836 19.6944L93.4264 20.0929C94.2466 20.2121 94.5741 21.2201 93.9806 21.7986L91.9959 23.7332C91.7603 23.9629 91.6527 24.2939 91.7083 24.6183L92.1769 27.35C92.317 28.1669 91.4595 28.7899 90.7259 28.4042L88.2727 27.1145C87.9814 26.9613 87.6334 26.9613 87.342 27.1145L84.8888 28.4042C84.1552 28.7899 83.2978 28.1669 83.4379 27.35L83.9064 24.6183C83.962 24.2939 83.8545 23.9629 83.6188 23.7332L81.6341 21.7986C81.0406 21.2201 81.3681 20.2121 82.1884 20.0929L84.9311 19.6944C85.2568 19.6471 85.5384 19.4425 85.684 19.1473L86.9106 16.662Z" fill="#C4C4C4"/>
<path d="M78.1729 7.07922C78.5397 6.33598 79.5996 6.33598 79.9664 7.07922L81.0734 9.32237C81.2191 9.61752 81.5007 9.82209 81.8264 9.86941L84.3018 10.2291C85.1221 10.3483 85.4496 11.3563 84.856 11.9348L83.0648 13.6809C82.8291 13.9106 82.7215 14.2416 82.7772 14.566L83.2 17.0315C83.3402 17.8484 82.4827 18.4713 81.7491 18.0856L79.535 16.9216C79.2437 16.7684 78.8956 16.7684 78.6043 16.9216L76.3902 18.0856C75.6565 18.4713 74.7991 17.8484 74.9392 17.0315L75.3621 14.566C75.4177 14.2416 75.3102 13.9106 75.0745 13.6809L73.2832 11.9348C72.6897 11.3563 73.0172 10.3483 73.8374 10.2291L76.3129 9.86941C76.6386 9.82209 76.9202 9.61752 77.0658 9.32237L78.1729 7.07922Z" fill="#C4C4C4"/>
<path d="M36.8519 48.7835C37.2187 48.0403 38.2785 48.0403 38.6454 48.7835L40.5207 52.5834C40.6664 52.8785 40.9479 53.0831 41.2736 53.1304L45.4671 53.7398C46.2873 53.859 46.6148 54.8669 46.0213 55.4455L42.9869 58.4033C42.7512 58.633 42.6437 58.964 42.6993 59.2884L43.4156 63.4649C43.5557 64.2818 42.6983 64.9047 41.9647 64.519L38.214 62.5472C37.9226 62.394 37.5746 62.394 37.2833 62.5472L33.5326 64.519C32.7989 64.9047 31.9415 64.2818 32.0816 63.4649L32.7979 59.2884C32.8536 58.964 32.746 58.633 32.5103 58.4033L29.476 55.4455C28.8824 54.8669 29.2099 53.859 30.0302 53.7398L34.2236 53.1304C34.5493 53.0831 34.8309 52.8785 34.9765 52.5834L36.8519 48.7835Z" fill="#C4C4C4"/>
</svg>
