<svg width="116" height="200" viewBox="0 0 116 200" fill="none" xmlns="http://www.w3.org/2000/svg">
<path d="M8.11868 170.774L41.531 109.926M41.531 109.926L44.2474 75.6986L37.7279 10.5039M41.531 109.926L108.084 192.506" stroke="#C4C4C4"/>
<path d="M107.374 186.38C107.741 185.637 108.801 185.637 109.168 186.38L110.233 188.539C110.379 188.834 110.661 189.039 110.986 189.086L113.369 189.432C114.189 189.551 114.517 190.559 113.923 191.138L112.199 192.819C111.963 193.048 111.856 193.379 111.911 193.704L112.319 196.077C112.459 196.894 111.601 197.517 110.868 197.131L108.736 196.011C108.445 195.858 108.097 195.858 107.806 196.011L105.674 197.131C104.941 197.517 104.083 196.894 104.223 196.077L104.63 193.704C104.686 193.379 104.578 193.048 104.343 192.819L102.619 191.138C102.025 190.559 102.353 189.551 103.173 189.432L105.556 189.086C105.881 189.039 106.163 188.834 106.309 188.539L107.374 186.38Z" fill="#C4C4C4"/>
<path d="M7.3958 164.634C7.76262 163.891 8.82246 163.891 9.18927 164.634L10.2192 166.721C10.3649 167.016 10.6465 167.221 10.9722 167.268L13.2752 167.603C14.0955 167.722 14.423 168.73 13.8294 169.308L12.1629 170.933C11.9273 171.163 11.8197 171.494 11.8753 171.818L12.2687 174.112C12.4089 174.929 11.5514 175.552 10.8178 175.166L8.75788 174.083C8.46656 173.93 8.11852 173.93 7.8272 174.083L5.76728 175.166C5.03365 175.552 4.17622 174.929 4.31633 174.112L4.70974 171.818C4.76537 171.494 4.65783 171.163 4.42214 170.933L2.75563 169.308C2.16211 168.73 2.48962 167.722 3.30984 167.603L5.6129 167.268C5.93861 167.221 6.22018 167.016 6.36584 166.721L7.3958 164.634Z" fill="#C4C4C4"/>
<path d="M41.3123 93.8596C41.6791 93.1163 42.739 93.1163 43.1058 93.8596L47.0918 101.936C47.2374 102.231 47.519 102.436 47.8447 102.483L56.7577 103.778C57.5779 103.897 57.9054 104.905 57.3119 105.484L50.8624 111.771C50.6267 112 50.5192 112.331 50.5748 112.656L52.0973 121.533C52.2374 122.35 51.38 122.973 50.6464 122.587L42.6744 118.396C42.383 118.243 42.035 118.243 41.7437 118.396L33.7717 122.587C33.0381 122.973 32.1806 122.35 32.3207 121.533L33.8433 112.656C33.8989 112.331 33.7914 112 33.5557 111.771L27.1062 105.484C26.5127 104.905 26.8402 103.897 27.6604 103.778L36.5734 102.483C36.8991 102.436 37.1806 102.231 37.3263 101.936L41.3123 93.8596Z" fill="#C4C4C4"/>
<path d="M43.4076 69.8734C43.7744 69.1302 44.8343 69.1302 45.2011 69.8734L46.3168 72.1341C46.4624 72.4292 46.744 72.6338 47.0697 72.6811L49.5645 73.0436C50.3847 73.1628 50.7122 74.1708 50.1187 74.7493L48.3135 76.509C48.0778 76.7388 47.9702 77.0698 48.0259 77.3941L48.452 79.8789C48.5921 80.6958 47.7347 81.3187 47.0011 80.933L44.7697 79.7599C44.4783 79.6068 44.1303 79.6068 43.839 79.7599L41.6076 80.933C40.8739 81.3187 40.0165 80.6958 40.1566 79.8789L40.5828 77.3941C40.6384 77.0698 40.5309 76.7388 40.2952 76.509L38.4899 74.7493C37.8964 74.1708 38.2239 73.1628 39.0442 73.0436L41.539 72.6811C41.8647 72.6338 42.1462 72.4292 42.2919 72.1341L43.4076 69.8734Z" fill="#C4C4C4"/>
<path d="M37.2225 2.39633C37.5893 1.65309 38.6491 1.65309 39.0159 2.39633L40.7944 5.99985C40.94 6.29499 41.2216 6.49956 41.5473 6.54689L45.524 7.12474C46.3442 7.24393 46.6718 8.2519 46.0782 8.83044L43.2007 11.6354C42.965 11.8651 42.8574 12.1961 42.9131 12.5205L43.5924 16.4812C43.7325 17.2981 42.875 17.921 42.1414 17.5353L38.5845 15.6654C38.2932 15.5122 37.9452 15.5122 37.6538 15.6654L34.097 17.5353C33.3633 17.921 32.5059 17.2981 32.646 16.4812L33.3253 12.5205C33.381 12.1961 33.2734 11.8651 33.0377 11.6354L30.1601 8.83044C29.5666 8.2519 29.8941 7.24393 30.7144 7.12474L34.6911 6.54689C35.0168 6.49956 35.2983 6.29499 35.444 5.99985L37.2225 2.39633Z" fill="#C4C4C4"/>
</svg>
