<svg width="230" height="196" viewBox="0 0 230 196" fill="none" xmlns="http://www.w3.org/2000/svg">
<path d="M163.581 74.1049L66.6037 106.702L17.1644 178.145L82.3591 146.091L211.119 123.273L196.721 86.8722L163.581 74.1049ZM163.581 74.1049L158.42 46.3972L190.202 8.36692L213.563 22.4924" stroke="#C4C4C4"/>
<path d="M163.128 58.6584C163.495 57.9152 164.555 57.9152 164.922 58.6584L168.963 66.847C169.109 67.1422 169.39 67.3467 169.716 67.394L178.752 68.7071C179.573 68.8263 179.9 69.8343 179.307 70.4128L172.768 76.7867C172.532 77.0165 172.424 77.3475 172.48 77.6719L174.024 86.672C174.164 87.4889 173.306 88.1118 172.573 87.7262L164.49 83.4769C164.199 83.3237 163.851 83.3237 163.56 83.4769L155.477 87.7262C154.743 88.1118 153.886 87.4889 154.026 86.672L155.57 77.6719C155.625 77.3475 155.518 77.0165 155.282 76.7867L148.743 70.4128C148.15 69.8343 148.477 68.8263 149.297 68.7071L158.334 67.394C158.66 67.3467 158.941 67.1422 159.087 66.847L163.128 58.6584Z" fill="#C4C4C4"/>
<path d="M212.424 14.3173C212.791 13.5741 213.851 13.5741 214.218 14.3173L215.996 17.9208C216.142 18.216 216.423 18.4205 216.749 18.4679L220.726 19.0457C221.546 19.1649 221.873 20.1729 221.28 20.7514L218.402 23.5564C218.167 23.7861 218.059 24.1171 218.115 24.4415L218.794 28.4022C218.934 29.2191 218.077 29.842 217.343 29.4563L213.786 27.5864C213.495 27.4332 213.147 27.4332 212.855 27.5864L209.299 29.4563C208.565 29.842 207.708 29.2191 207.848 28.4022L208.527 24.4415C208.583 24.1171 208.475 23.7861 208.239 23.5564L205.362 20.7514C204.768 20.1729 205.096 19.1649 205.916 19.0457L209.893 18.4679C210.218 18.4205 210.5 18.216 210.646 17.9208L212.424 14.3173Z" fill="#C4C4C4"/>
<path d="M189.161 2.0692C189.528 1.32595 190.587 1.32595 190.954 2.0692L192.246 4.68707C192.392 4.98221 192.673 5.18678 192.999 5.23411L195.888 5.6539C196.708 5.77309 197.036 6.78106 196.442 7.3596L194.352 9.39732C194.116 9.62706 194.009 9.95806 194.064 10.2825L194.558 13.1598C194.698 13.9767 193.84 14.5996 193.107 14.2139L190.523 12.8555C190.232 12.7023 189.883 12.7023 189.592 12.8555L187.008 14.2139C186.275 14.5996 185.417 13.9767 185.557 13.1598L186.051 10.2825C186.106 9.95806 185.999 9.62706 185.763 9.39732L183.673 7.3596C183.079 6.78106 183.407 5.77309 184.227 5.6539L187.116 5.23411C187.442 5.18678 187.723 4.98221 187.869 4.68707L189.161 2.0692Z" fill="#C4C4C4"/>
<path d="M210.467 108.736C210.834 107.992 211.894 107.992 212.261 108.736L216.34 117.001C216.486 117.296 216.767 117.501 217.093 117.548L226.215 118.874C227.035 118.993 227.362 120.001 226.769 120.579L220.169 127.013C219.933 127.243 219.825 127.574 219.881 127.898L221.439 136.983C221.579 137.8 220.722 138.423 219.988 138.037L211.83 133.748C211.538 133.595 211.19 133.595 210.899 133.748L202.74 138.037C202.007 138.423 201.149 137.8 201.289 136.983L202.847 127.898C202.903 127.574 202.796 127.243 202.56 127.013L195.959 120.579C195.366 120.001 195.693 118.993 196.514 118.874L205.635 117.548C205.961 117.501 206.243 117.296 206.388 117.001L210.467 108.736Z" fill="#C4C4C4"/>
<path d="M18.4371 160.057C18.8039 159.314 19.8637 159.314 20.2305 160.057L24.5184 168.745C24.664 169.04 24.9456 169.245 25.2713 169.292L34.8592 170.685C35.6794 170.804 36.007 171.812 35.4134 172.391L28.4756 179.154C28.2399 179.383 28.1323 179.714 28.188 180.039L29.8258 189.588C29.9659 190.405 29.1085 191.028 28.3748 190.642L19.7991 186.134C19.5078 185.98 19.1598 185.98 18.8685 186.134L10.2928 190.642C9.55916 191.028 8.70172 190.405 8.84183 189.588L10.4796 180.039C10.5353 179.714 10.4277 179.383 10.192 179.154L3.25418 172.391C2.66066 171.812 2.98817 170.804 3.80839 170.685L13.3963 169.292C13.722 169.245 14.0036 169.04 14.1492 168.745L18.4371 160.057Z" fill="#C4C4C4"/>
<path d="M195.805 81.114C196.172 80.3708 197.231 80.3708 197.598 81.114L198.797 83.5432C198.943 83.8384 199.224 84.0429 199.55 84.0903L202.231 84.4798C203.051 84.599 203.379 85.607 202.785 86.1855L200.845 88.0764C200.609 88.3061 200.502 88.6371 200.558 88.9615L201.015 91.6315C201.156 92.4484 200.298 93.0713 199.565 92.6856L197.167 91.4251C196.875 91.2719 196.527 91.2719 196.236 91.4251L193.838 92.6856C193.105 93.0713 192.247 92.4484 192.387 91.6315L192.845 88.9615C192.901 88.6371 192.793 88.3061 192.558 88.0764L190.618 86.1855C190.024 85.607 190.352 84.599 191.172 84.4798L193.853 84.0903C194.179 84.0429 194.46 83.8384 194.606 83.5432L195.805 81.114Z" fill="#C4C4C4"/>
<path d="M157.572 40.4439C157.939 39.7006 158.999 39.7006 159.366 40.4439L160.462 42.6661C160.608 42.9612 160.889 43.1658 161.215 43.2131L163.668 43.5694C164.488 43.6886 164.815 44.6966 164.222 45.2751L162.447 47.0049C162.212 47.2346 162.104 47.5656 162.16 47.89L162.579 50.3324C162.719 51.1494 161.861 51.7723 161.128 51.3866L158.934 50.2335C158.643 50.0803 158.295 50.0803 158.003 50.2335L155.81 51.3866C155.076 51.7723 154.219 51.1494 154.359 50.3324L154.778 47.89C154.834 47.5656 154.726 47.2346 154.49 47.0049L152.716 45.2751C152.122 44.6966 152.45 43.6886 153.27 43.5694L155.722 43.2131C156.048 43.1658 156.33 42.9612 156.475 42.6661L157.572 40.4439Z" fill="#C4C4C4"/>
<path d="M81.2459 138.05C81.6127 137.307 82.6726 137.307 83.0394 138.05L84.8851 141.79C85.0307 142.085 85.3123 142.29 85.638 142.337L89.7651 142.937C90.5854 143.056 90.9129 144.064 90.3194 144.642L87.3329 147.553C87.0973 147.783 86.9897 148.114 87.0453 148.438L87.7503 152.549C87.8905 153.366 87.033 153.989 86.2994 153.603L82.608 151.662C82.3167 151.509 81.9686 151.509 81.6773 151.662L77.9859 153.603C77.2523 153.989 76.3948 153.366 76.5349 152.549L77.2399 148.438C77.2956 148.114 77.188 147.783 76.9523 147.553L73.9659 144.642C73.3724 144.064 73.6999 143.056 74.5201 142.937L78.6473 142.337C78.973 142.29 79.2545 142.085 79.4002 141.79L81.2459 138.05Z" fill="#C4C4C4"/>
<path d="M66.2461 90.4248C66.6129 89.6816 67.6727 89.6816 68.0395 90.4248L72.216 98.8874C72.3617 99.1825 72.6433 99.3871 72.969 99.4344L82.3079 100.791C83.1282 100.911 83.4557 101.919 82.8622 102.497L76.1044 109.084C75.8687 109.314 75.7612 109.645 75.8168 109.969L77.4121 119.271C77.5522 120.088 76.6948 120.711 75.9612 120.325L67.6081 115.933C67.3168 115.78 66.9688 115.78 66.6775 115.933L58.3244 120.325C57.5908 120.711 56.7334 120.088 56.8735 119.271L58.4688 109.969C58.5244 109.645 58.4169 109.314 58.1812 109.084L51.4234 102.497C50.8299 101.919 51.1574 100.911 51.9777 100.791L61.3166 99.4344C61.6423 99.3871 61.9239 99.1825 62.0696 98.8874L66.2461 90.4248Z" fill="#C4C4C4"/>
</svg>
