<svg width="228" height="215" viewBox="0 0 228 215" fill="none" xmlns="http://www.w3.org/2000/svg">
<path d="M10.8255 56.4063L15.7151 72.9767L32.2854 74.0632L47.7691 83.2992L56.4618 122.959L87.4292 197.933L94.2204 181.906L91.5039 158.816L104.271 130.837L111.334 116.983L124.373 101.771L153.167 59.6661L173.269 41.7375M173.269 41.7375L178.702 20.2776L191.197 9.1402L208.311 18.3761L207.496 39.2927L193.099 56.9496L173.269 41.7375Z" stroke="#C4C4C4"/>
<path d="M55.786 108.374C56.1528 107.631 57.2126 107.631 57.5795 108.374L61.4071 116.13C61.5528 116.425 61.8344 116.63 62.1601 116.677L70.7191 117.921C71.5393 118.04 71.8668 119.048 71.2733 119.627L65.0799 125.664C64.8443 125.893 64.7367 126.224 64.7923 126.549L66.2544 135.073C66.3945 135.89 65.5371 136.513 64.8034 136.127L57.1481 132.103C56.8567 131.949 56.5087 131.949 56.2174 132.103L48.562 136.127C47.8284 136.513 46.9709 135.89 47.111 135.073L48.5731 126.549C48.6287 126.224 48.5212 125.893 48.2855 125.664L42.0922 119.627C41.4987 119.048 41.8262 118.04 42.6464 117.921L51.2054 116.677C51.5311 116.63 51.8126 116.425 51.9583 116.13L55.786 108.374Z" fill="#C4C4C4"/>
<path d="M206.507 33.0724C206.874 32.3292 207.934 32.3292 208.301 33.0724L209.422 35.344C209.567 35.6391 209.849 35.8437 210.175 35.891L212.681 36.2553C213.502 36.3744 213.829 37.3824 213.236 37.9609L211.422 39.7291C211.186 39.9588 211.078 40.2898 211.134 40.6142L211.562 43.1108C211.702 43.9277 210.845 44.5507 210.111 44.165L207.869 42.9863C207.578 42.8331 207.23 42.8331 206.938 42.9863L204.696 44.165C203.963 44.5507 203.105 43.9277 203.245 43.1108L203.674 40.6142C203.729 40.2898 203.622 39.9588 203.386 39.7291L201.572 37.9609C200.979 37.3824 201.306 36.3744 202.126 36.2553L204.633 35.891C204.959 35.8437 205.24 35.6391 205.386 35.344L206.507 33.0724Z" fill="#C4C4C4"/>
<path d="M190.378 3.60641C190.745 2.86317 191.805 2.86317 192.171 3.60641L193.259 5.80947C193.404 6.10461 193.686 6.30918 194.012 6.35651L196.443 6.70978C197.263 6.82897 197.591 7.83694 196.997 8.41548L195.238 10.1303C195.002 10.3601 194.895 10.6911 194.95 11.0154L195.365 13.4368C195.506 14.2537 194.648 14.8767 193.915 14.491L191.74 13.3478C191.449 13.1946 191.101 13.1946 190.809 13.3478L188.635 14.491C187.901 14.8767 187.044 14.2537 187.184 13.4368L187.599 11.0154C187.655 10.6911 187.547 10.3601 187.311 10.1303L185.552 8.41548C184.959 7.83694 185.286 6.82897 186.106 6.70978L188.538 6.35651C188.863 6.30918 189.145 6.10461 189.291 5.80947L190.378 3.60641Z" fill="#C4C4C4"/>
<path d="M208.11 2.75903C208.477 2.01579 209.537 2.01579 209.904 2.75903L214.099 11.2585C214.244 11.5536 214.526 11.7582 214.852 11.8055L224.231 13.1685C225.052 13.2877 225.379 14.2957 224.786 14.8742L217.998 21.4901C217.763 21.7198 217.655 22.0508 217.711 22.3752L219.313 31.717C219.453 32.534 218.596 33.1569 217.862 32.7712L209.473 28.3606C209.181 28.2075 208.833 28.2075 208.542 28.3606L200.152 32.7712C199.419 33.1569 198.561 32.534 198.701 31.717L200.304 22.3752C200.359 22.0508 200.252 21.7198 200.016 21.4901L193.229 14.8742C192.635 14.2956 192.963 13.2877 193.783 13.1685L203.163 11.8055C203.489 11.7582 203.77 11.5536 203.916 11.2585L208.11 2.75903Z" fill="#C4C4C4"/>
<path d="M178.482 11.994C178.849 11.2508 179.909 11.2508 180.275 11.994L182.142 15.7769C182.288 16.0721 182.57 16.2766 182.895 16.324L187.07 16.9306C187.89 17.0498 188.218 18.0577 187.624 18.6363L184.603 21.5808C184.368 21.8106 184.26 22.1416 184.316 22.466L185.029 26.6238C185.169 27.4407 184.312 28.0636 183.578 27.6779L179.844 25.7149C179.553 25.5617 179.205 25.5617 178.913 25.7149L175.179 27.6779C174.446 28.0636 173.588 27.4407 173.728 26.6238L174.442 22.466C174.497 22.1416 174.39 21.8106 174.154 21.5808L171.133 18.6363C170.54 18.0577 170.867 17.0498 171.687 16.9306L175.862 16.324C176.188 16.2766 176.469 16.0721 176.615 15.7769L178.482 11.994Z" fill="#C4C4C4"/>
<path d="M192.734 47.2077C193.1 46.4644 194.16 46.4644 194.527 47.2077L196.533 51.2726C196.679 51.5677 196.96 51.7723 197.286 51.8196L201.772 52.4715C202.592 52.5907 202.92 53.5986 202.326 54.1772L199.08 57.3413C198.845 57.571 198.737 57.902 198.793 58.2264L199.559 62.6942C199.699 63.5111 198.842 64.1341 198.108 63.7484L194.096 61.639C193.804 61.4858 193.456 61.4858 193.165 61.639L189.153 63.7484C188.419 64.1341 187.562 63.5111 187.702 62.6942L188.468 58.2264C188.524 57.902 188.416 57.571 188.18 57.3413L184.934 54.1772C184.341 53.5986 184.668 52.5907 185.489 52.4715L189.974 51.8196C190.3 51.7723 190.582 51.5677 190.727 51.2726L192.734 47.2077Z" fill="#C4C4C4"/>
<path d="M172.747 32.6447C173.114 31.9014 174.174 31.9014 174.54 32.6447L176.55 36.7167C176.696 37.0118 176.977 37.2164 177.303 37.2637L181.797 37.9167C182.617 38.0359 182.944 39.0438 182.351 39.6224L179.099 42.792C178.863 43.0217 178.756 43.3527 178.812 43.6771L179.579 48.1526C179.719 48.9695 178.862 49.5925 178.128 49.2068L174.109 47.0937C173.818 46.9406 173.47 46.9406 173.178 47.0937L169.159 49.2068C168.425 49.5925 167.568 48.9695 167.708 48.1526L168.476 43.6771C168.531 43.3527 168.424 43.0217 168.188 42.792L164.936 39.6224C164.343 39.0438 164.67 38.0359 165.491 37.9167L169.984 37.2637C170.31 37.2164 170.592 37.0118 170.737 36.7167L172.747 32.6447Z" fill="#C4C4C4"/>
<path d="M152.374 52.4693C152.741 51.7261 153.801 51.7261 154.168 52.4693L155.63 55.4328C155.776 55.7279 156.057 55.9325 156.383 55.9798L159.654 56.455C160.474 56.5742 160.801 57.5822 160.208 58.1607L157.841 60.4674C157.606 60.6972 157.498 61.0282 157.554 61.3526L158.112 64.6097C158.252 65.4266 157.395 66.0496 156.661 65.6639L153.736 64.1261C153.445 63.9729 153.097 63.9729 152.806 64.1261L149.88 65.6639C149.147 66.0496 148.289 65.4266 148.43 64.6097L148.988 61.3526C149.044 61.0282 148.936 60.6972 148.701 60.4674L146.334 58.1607C145.741 57.5822 146.068 56.5742 146.888 56.455L150.159 55.9798C150.484 55.9325 150.766 55.7279 150.912 55.4328L152.374 52.4693Z" fill="#C4C4C4"/>
<path d="M123.652 96.1432C124.019 95.3999 125.078 95.3999 125.445 96.1432L126.584 98.4495C126.729 98.7446 127.011 98.9492 127.336 98.9965L129.882 99.3664C130.702 99.4856 131.029 100.494 130.436 101.072L128.594 102.867C128.358 103.097 128.251 103.428 128.307 103.752L128.741 106.287C128.881 107.104 128.024 107.727 127.29 107.342L125.014 106.145C124.723 105.992 124.375 105.992 124.083 106.145L121.807 107.342C121.073 107.727 120.216 107.104 120.356 106.287L120.791 103.752C120.846 103.428 120.739 103.097 120.503 102.867L118.661 101.072C118.068 100.494 118.395 99.4856 119.215 99.3664L121.761 98.9965C122.086 98.9492 122.368 98.7446 122.514 98.4495L123.652 96.1432Z" fill="#C4C4C4"/>
<path d="M110.677 111.535C111.044 110.792 112.104 110.792 112.471 111.535L113.542 113.706C113.688 114.001 113.969 114.206 114.295 114.253L116.691 114.601C117.511 114.72 117.839 115.728 117.245 116.307L115.511 117.997C115.276 118.227 115.168 118.558 115.224 118.882L115.633 121.268C115.773 122.085 114.916 122.708 114.182 122.322L112.039 121.196C111.748 121.043 111.4 121.043 111.109 121.196L108.966 122.322C108.232 122.708 107.375 122.085 107.515 121.268L107.924 118.882C107.98 118.558 107.872 118.227 107.636 117.997L105.903 116.307C105.309 115.728 105.637 114.72 106.457 114.601L108.853 114.253C109.178 114.206 109.46 114.001 109.606 113.706L110.677 111.535Z" fill="#C4C4C4"/>
<path d="M103.545 125.157C103.911 124.413 104.971 124.413 105.338 125.157L106.448 127.406C106.594 127.701 106.875 127.906 107.201 127.953L109.684 128.314C110.504 128.433 110.831 129.441 110.238 130.02L108.442 131.771C108.206 132 108.098 132.331 108.154 132.656L108.578 135.128C108.718 135.945 107.861 136.568 107.127 136.182L104.907 135.015C104.615 134.862 104.267 134.862 103.976 135.015L101.756 136.182C101.022 136.568 100.165 135.945 100.305 135.128L100.729 132.656C100.784 132.331 100.677 132 100.441 131.771L98.6448 130.02C98.0512 129.441 98.3787 128.433 99.199 128.314L101.681 127.953C102.007 127.906 102.289 127.701 102.434 127.406L103.545 125.157Z" fill="#C4C4C4"/>
<path d="M91.2225 151.396C91.5893 150.653 92.6491 150.653 93.0159 151.396L94.7944 155C94.94 155.295 95.2216 155.5 95.5473 155.547L99.524 156.125C100.344 156.244 100.672 157.252 100.078 157.83L97.2007 160.635C96.965 160.865 96.8574 161.196 96.9131 161.521L97.5924 165.481C97.7325 166.298 96.875 166.921 96.1414 166.535L92.5845 164.665C92.2932 164.512 91.9452 164.512 91.6538 164.665L88.097 166.535C87.3633 166.921 86.5059 166.298 86.646 165.481L87.3253 161.521C87.381 161.196 87.2734 160.865 87.0377 160.635L84.1601 157.83C83.5666 157.252 83.8941 156.244 84.7144 156.125L88.6911 155.547C89.0168 155.5 89.2983 155.295 89.444 155L91.2225 151.396Z" fill="#C4C4C4"/>
<path d="M93.2601 175.788C93.6269 175.044 94.6867 175.044 95.0536 175.788L96.1834 178.077C96.3291 178.372 96.6106 178.577 96.9364 178.624L99.4628 178.991C100.283 179.11 100.611 180.118 100.017 180.697L98.1889 182.479C97.9532 182.708 97.8456 183.039 97.9013 183.364L98.3328 185.88C98.473 186.697 97.6155 187.32 96.8819 186.934L94.6222 185.746C94.3308 185.593 93.9828 185.593 93.6915 185.746L91.4318 186.934C90.6981 187.32 89.8407 186.697 89.9808 185.88L90.4124 183.364C90.468 183.039 90.3605 182.708 90.1248 182.479L88.2966 180.697C87.7031 180.118 88.0306 179.11 88.8508 178.991L91.3773 178.624C91.703 178.577 91.9846 178.372 92.1302 178.077L93.2601 175.788Z" fill="#C4C4C4"/>
<path d="M86.2326 182.373C86.5994 181.63 87.6593 181.63 88.0261 182.373L91.8558 190.133C92.0015 190.428 92.2831 190.633 92.6088 190.68L101.172 191.925C101.993 192.044 102.32 193.052 101.727 193.63L95.5299 199.671C95.2942 199.9 95.1867 200.231 95.2423 200.556L96.7052 209.085C96.8453 209.902 95.9878 210.525 95.2542 210.139L87.5947 206.112C87.3034 205.959 86.9553 205.959 86.664 206.112L79.0045 210.139C78.2708 210.525 77.4134 209.902 77.5535 209.085L79.0164 200.556C79.072 200.231 78.9645 199.9 78.7288 199.671L72.5321 193.63C71.9386 193.052 72.2661 192.044 73.0863 191.925L81.6499 190.68C81.9756 190.633 82.2572 190.428 82.4028 190.133L86.2326 182.373Z" fill="#C4C4C4"/>
<path d="M47.3374 77.4634C47.7042 76.7202 48.7641 76.7202 49.1309 77.4634L50.1869 79.6032C50.3326 79.8983 50.6141 80.1029 50.9399 80.1502L53.3012 80.4933C54.1214 80.6125 54.4489 81.6205 53.8554 82.199L52.1467 83.8646C51.911 84.0943 51.8035 84.4253 51.8591 84.7497L52.2625 87.1015C52.4026 87.9184 51.5452 88.5414 50.8115 88.1557L48.6995 87.0453C48.4082 86.8922 48.0601 86.8922 47.7688 87.0453L45.6568 88.1557C44.9231 88.5414 44.0657 87.9184 44.2058 87.1015L44.6092 84.7497C44.6648 84.4253 44.5573 84.0943 44.3216 83.8646L42.6129 82.199C42.0194 81.6205 42.3469 80.6125 43.1671 80.4933L45.5285 80.1502C45.8542 80.1029 46.1357 79.8983 46.2814 79.6032L47.3374 77.4634Z" fill="#C4C4C4"/>
<path d="M31.5188 69.1952C31.8856 68.452 32.9454 68.452 33.3123 69.1952L34.3423 71.2824C34.488 71.5775 34.7695 71.7821 35.0953 71.8294L37.3985 72.1641C38.2188 72.2833 38.5463 73.2912 37.9528 73.8698L36.2861 75.4944C36.0504 75.7241 35.9428 76.0551 35.9985 76.3795L36.3919 78.6735C36.532 79.4904 35.6746 80.1134 34.941 79.7277L32.8809 78.6446C32.5895 78.4914 32.2415 78.4914 31.9502 78.6446L29.8901 79.7277C29.1564 80.1134 28.299 79.4904 28.4391 78.6735L28.8326 76.3795C28.8882 76.0551 28.7806 75.7241 28.545 75.4944L26.8783 73.8698C26.2848 73.2912 26.6123 72.2833 27.4325 72.1641L29.7358 71.8294C30.0615 71.7821 30.3431 71.5775 30.4887 71.2824L31.5188 69.1952Z" fill="#C4C4C4"/>
<path d="M15.0341 66.885C15.4009 66.1418 16.4608 66.1418 16.8276 66.885L17.919 69.0965C18.0647 69.3917 18.3463 69.5962 18.672 69.6436L21.1125 69.9982C21.9327 70.1174 22.2602 71.1254 21.6667 71.7039L19.9007 73.4253C19.665 73.655 19.5575 73.986 19.6131 74.3104L20.03 76.7411C20.1701 77.558 19.3127 78.1809 18.5791 77.7953L16.3962 76.6477C16.1049 76.4945 15.7568 76.4945 15.4655 76.6477L13.2827 77.7953C12.549 78.1809 11.6916 77.558 11.8317 76.7411L12.2486 74.3104C12.3042 73.986 12.1967 73.655 11.961 73.4253L10.195 71.7039C9.6015 71.1254 9.92901 70.1174 10.7492 69.9982L13.1898 69.6436C13.5155 69.5962 13.797 69.3917 13.9427 69.0965L15.0341 66.885Z" fill="#C4C4C4"/>
<path d="M9.78376 48.1157C10.1506 47.3724 11.2104 47.3724 11.5772 48.1157L13.3557 51.7192C13.5013 52.0143 13.7829 52.2189 14.1086 52.2662L18.0853 52.8441C18.9056 52.9633 19.2331 53.9712 18.6395 54.5498L15.762 57.3547C15.5263 57.5845 15.4187 57.9155 15.4744 58.2398L16.1537 62.2005C16.2938 63.0174 15.4364 63.6404 14.7027 63.2547L11.1458 61.3847C10.8545 61.2315 10.5065 61.2315 10.2152 61.3847L6.65827 63.2547C5.92464 63.6404 5.06721 63.0174 5.20732 62.2005L5.88663 58.2398C5.94226 57.9155 5.83472 57.5845 5.59903 57.3547L2.72145 54.5498C2.12793 53.9712 2.45544 52.9633 3.27566 52.8441L7.25238 52.2662C7.57809 52.2189 7.85966 52.0143 8.00532 51.7192L9.78376 48.1157Z" fill="#C4C4C4"/>
</svg>
