<svg width="203" height="200" viewBox="0 0 203 200" fill="none" xmlns="http://www.w3.org/2000/svg">
<path d="M195.658 191.825L186.966 181.502L142.416 156.783L117.425 130.162M117.425 130.162L115.523 115.221L109.819 102.454L44.0806 17.9725M117.425 130.162L103.571 123.914L81.2959 108.973L10.9399 58.1759" stroke="#C4C4C4"/>
<path d="M185.717 175.101C186.083 174.357 187.143 174.357 187.51 175.101L188.824 177.764C188.97 178.059 189.251 178.263 189.577 178.311L192.516 178.738C193.336 178.857 193.664 179.865 193.07 180.443L190.944 182.516C190.708 182.746 190.6 183.077 190.656 183.401L191.158 186.328C191.298 187.145 190.441 187.768 189.707 187.382L187.079 186C186.787 185.847 186.439 185.847 186.148 186L183.519 187.382C182.786 187.768 181.928 187.145 182.069 186.328L182.571 183.401C182.626 183.077 182.519 182.746 182.283 182.516L180.156 180.443C179.563 179.865 179.89 178.857 180.711 178.738L183.649 178.311C183.975 178.263 184.257 178.059 184.402 177.764L185.717 175.101Z" fill="#C4C4C4"/>
<path d="M141.595 147.938C141.962 147.195 143.022 147.195 143.388 147.938L145.36 151.933C145.506 152.228 145.787 152.432 146.113 152.48L150.521 153.12C151.341 153.239 151.669 154.247 151.075 154.826L147.885 157.935C147.65 158.165 147.542 158.496 147.598 158.82L148.351 163.211C148.491 164.028 147.634 164.651 146.9 164.265L142.957 162.192C142.666 162.039 142.318 162.039 142.026 162.192L138.084 164.265C137.35 164.651 136.492 164.028 136.633 163.211L137.386 158.82C137.441 158.496 137.334 158.165 137.098 157.935L133.908 154.826C133.315 154.247 133.642 153.239 134.462 153.12L138.871 152.48C139.196 152.432 139.478 152.228 139.624 151.933L141.595 147.938Z" fill="#C4C4C4"/>
<path d="M194.614 186.357C194.981 185.614 196.041 185.614 196.408 186.357L197.449 188.467C197.594 188.762 197.876 188.966 198.202 189.014L200.53 189.352C201.35 189.471 201.677 190.479 201.084 191.057L199.399 192.699C199.164 192.929 199.056 193.26 199.112 193.585L199.509 195.903C199.65 196.72 198.792 197.343 198.058 196.957L195.976 195.863C195.685 195.709 195.337 195.709 195.046 195.863L192.964 196.957C192.23 197.343 191.373 196.72 191.513 195.903L191.91 193.585C191.966 193.26 191.858 192.929 191.623 192.699L189.938 191.057C189.345 190.479 189.672 189.471 190.492 189.352L192.82 189.014C193.146 188.966 193.428 188.762 193.573 188.467L194.614 186.357Z" fill="#C4C4C4"/>
<path d="M108.666 96.5125C109.033 95.7692 110.093 95.7692 110.459 96.5125L111.617 98.8581C111.763 99.1533 112.044 99.3578 112.37 99.4052L114.959 99.7813C115.779 99.9005 116.106 100.908 115.513 101.487L113.64 103.313C113.404 103.543 113.296 103.874 113.352 104.198L113.794 106.776C113.934 107.593 113.077 108.216 112.343 107.83L110.028 106.613C109.737 106.46 109.389 106.46 109.097 106.613L106.782 107.83C106.048 108.216 105.191 107.593 105.331 106.776L105.773 104.198C105.829 103.874 105.721 103.543 105.486 103.313L103.613 101.487C103.019 100.908 103.347 99.9005 104.167 99.7813L106.755 99.4052C107.081 99.3578 107.363 99.1533 107.508 98.8581L108.666 96.5125Z" fill="#C4C4C4"/>
<path d="M114.613 109.99C114.98 109.246 116.039 109.246 116.406 109.99L117.392 111.986C117.537 112.281 117.819 112.486 118.144 112.533L120.348 112.853C121.168 112.973 121.495 113.981 120.902 114.559L119.308 116.113C119.072 116.343 118.964 116.674 119.02 116.998L119.396 119.193C119.536 120.009 118.679 120.632 117.945 120.247L115.975 119.211C115.683 119.058 115.335 119.058 115.044 119.211L113.073 120.247C112.34 120.632 111.482 120.009 111.623 119.193L111.999 116.998C112.055 116.674 111.947 116.343 111.711 116.113L110.117 114.559C109.523 113.981 109.851 112.973 110.671 112.853L112.874 112.533C113.2 112.486 113.482 112.281 113.627 111.986L114.613 109.99Z" fill="#C4C4C4"/>
<path d="M116.916 124.085C117.282 123.341 118.342 123.341 118.709 124.085L119.877 126.45C120.022 126.746 120.304 126.95 120.63 126.998L123.24 127.377C124.061 127.496 124.388 128.504 123.795 129.083L121.905 130.924C121.67 131.154 121.562 131.485 121.618 131.809L122.064 134.41C122.204 135.227 121.347 135.85 120.613 135.464L118.278 134.236C117.986 134.083 117.638 134.083 117.347 134.236L115.012 135.464C114.278 135.85 113.421 135.227 113.561 134.41L114.007 131.809C114.062 131.485 113.955 131.154 113.719 130.924L111.83 129.083C111.236 128.504 111.564 127.496 112.384 127.377L114.995 126.998C115.321 126.95 115.602 126.746 115.748 126.45L116.916 124.085Z" fill="#C4C4C4"/>
<path d="M102.859 119.062C103.226 118.318 104.286 118.318 104.652 119.062L105.488 120.755C105.634 121.051 105.916 121.255 106.241 121.302L108.111 121.574C108.931 121.693 109.258 122.701 108.665 123.28L107.312 124.598C107.077 124.828 106.969 125.159 107.025 125.483L107.344 127.345C107.484 128.162 106.627 128.785 105.893 128.399L104.221 127.52C103.93 127.367 103.582 127.367 103.29 127.52L101.618 128.399C100.885 128.785 100.027 128.162 100.167 127.345L100.487 125.483C100.542 125.159 100.435 124.828 100.199 124.598L98.8465 123.28C98.253 122.701 98.5805 121.693 99.4007 121.574L101.27 121.302C101.596 121.255 101.877 121.051 102.023 120.755L102.859 119.062Z" fill="#C4C4C4"/>
<path d="M80.2167 93.2014C80.5835 92.4582 81.6434 92.4582 82.0102 93.2014L85.8315 100.944C85.9771 101.239 86.2587 101.444 86.5844 101.491L95.1291 102.733C95.9493 102.852 96.2769 103.86 95.6833 104.439L89.5003 110.466C89.2646 110.695 89.1571 111.026 89.2127 111.351L90.6723 119.861C90.8125 120.678 89.955 121.301 89.2214 120.915L81.5788 116.897C81.2875 116.744 80.9394 116.744 80.6481 116.897L73.0055 120.915C72.2719 121.301 71.4144 120.678 71.5545 119.861L73.0141 111.351C73.0698 111.026 72.9622 110.695 72.7265 110.466L66.5435 104.439C65.95 103.86 66.2775 102.852 67.0978 102.733L75.6425 101.491C75.9682 101.444 76.2497 101.239 76.3954 100.944L80.2167 93.2014Z" fill="#C4C4C4"/>
<path d="M9.98361 49.3596C10.3504 48.6164 11.4103 48.6164 11.7771 49.3596L13.6917 53.2391C13.8374 53.5343 14.1189 53.7388 14.4447 53.7862L18.7259 54.4083C19.5461 54.5275 19.8736 55.5354 19.2801 56.114L16.1822 59.1337C15.9465 59.3634 15.8389 59.6944 15.8946 60.0188L16.6259 64.2828C16.766 65.0997 15.9086 65.7227 15.175 65.337L11.3457 63.3238C11.0544 63.1707 10.7063 63.1707 10.415 63.3238L6.58573 65.337C5.8521 65.7227 4.99467 65.0997 5.13478 64.2828L5.86611 60.0188C5.92174 59.6944 5.8142 59.3634 5.57851 59.1337L2.48056 56.114C1.88705 55.5354 2.21456 54.5275 3.03478 54.4083L7.31603 53.7862C7.64174 53.7388 7.92331 53.5343 8.06897 53.2391L9.98361 49.3596Z" fill="#C4C4C4"/>
<path d="M43.1685 1.89303C43.5353 1.14979 44.5952 1.14979 44.962 1.89304L48.9844 10.0434C49.1301 10.3385 49.4116 10.5431 49.7373 10.5904L58.7318 11.8974C59.552 12.0166 59.8795 13.0246 59.286 13.6031L52.7776 19.9473C52.5419 20.177 52.4343 20.508 52.49 20.8324L54.0264 29.7905C54.1665 30.6074 53.3091 31.2303 52.5755 30.8447L44.5306 26.6152C44.2393 26.4621 43.8912 26.4621 43.5999 26.6152L35.555 30.8447C34.8214 31.2303 33.964 30.6074 34.1041 29.7905L35.6405 20.8324C35.6961 20.508 35.5886 20.177 35.3529 19.9473L28.8445 13.6031C28.2509 13.0246 28.5785 12.0166 29.3987 11.8974L38.3931 10.5904C38.7188 10.5431 39.0004 10.3385 39.1461 10.0434L43.1685 1.89303Z" fill="#C4C4C4"/>
</svg>
